<svg id="圖層_1" data-name="圖層 1" xmlns="http://www.w3.org/2000/svg" viewBox="0 0 136.4 204.95"><defs><style>.cls-1{fill:#3e3a39;}.cls-2{fill:#ded6d3;}.cls-3{fill:#785549;}.cls-4{fill:#e3dcda;}.cls-5{fill:#d8ceca;}.cls-6{fill:#bbaaa4;}.cls-7{fill:#fefefe;}.cls-8{fill:#fcfbfb;}.cls-9{fill:#fdfdfc;}.cls-10{fill:#f6f4f4;}.cls-11{fill:#f7f6f5;}.cls-12{fill:#62392b;}.cls-13{fill:#765246;}.cls-14{fill:#a08880;}.cls-15{fill:#744f43;}.cls-16{fill:#c3b3ae;}.cls-17{fill:#d2c6c2;}.cls-18{fill:#b9a7a1;}.cls-19{fill:#7f5e53;}.cls-20{fill:#a58e86;}.cls-21{fill:#ae9992;}.cls-22{fill:#af9a93;}.cls-23{fill:#e8e2e0;}</style></defs><path class="cls-1" d="M140.93,174.19c1.54,5.06,5,10.48,4.09,15.1-.83,4.43-7.09,6.93-10.87,10.38-.86.79-1.75,1.54-2.64,2.29-2.4,2-4.53,5.06-7.3,5.86-3.34,1-3.49-4.14-6.19-5.3a8.69,8.69,0,0,0-2,0c6.38,7.75-.09,11.69-4.18,16.35C106.4,225,106.37,225,101,219l-.32-.37c-4.24-4.52-9.89-8.56-4.14-16.45-1.6.41-2.17.37-2.41.64-5.23,5.7-5.22,5.71-11.11.67-4.43-3.78-8.73-7.71-13.31-11.3-2.32-1.82-3-3.52-1.87-6.3,1.28-3.19,2.13-6.55,3.54-11-4.15,2.75-5.38,6.22-7.31,9-1.48,2.16-2.24,2.39-3.81.15a75.51,75.51,0,0,0-7.62-9.84c-4.23-4.34-5.1-8.82-2.06-14.05,1.16-.73.11-1.86.48-2.74.27-.71.61-1.39.85-2.07a2.53,2.53,0,0,0,.19-.22s-.23-.26-.24-.22c-.19.43-.31.85-.5,1.26-.55.8-1,1.72-2,2.07a7.8,7.8,0,0,1-1,1.61c-1.55,1.49-1.53,5.83-3.75,4.74-2.88-1.41-6.66-3.52-6.23-8.13a14.33,14.33,0,0,0,0-4c-2.22-11.46,3.94-19.85,10.19-28.23.12-1.68.12-1.68-1.92-.84-3,1.47-4.37,4.89-8,6.42-.25-7.93-1.7-15.6,3.72-22.43,2-2.58,3.43-5.69,5-8.59.69-1.25,2.2-2.72.87-4s-2.06,1-3.21,1.35c-.61.18-1.19.45-2.39.92,0-5.5.06-10.57,0-15.64,0-2.07,1.39-2.86,2.73-3.81,6.38-4.51,12.79-9,19.14-13.54a8.23,8.23,0,0,1,5.08-1.61q36.67.08,73.35,0a9.48,9.48,0,0,1,5.94,2c5.92,4.3,11.85,8.6,18,12.62a6.61,6.61,0,0,1,3.36,6.57c-.22,4.28-.06,8.58-.06,13.09-2.95.06-4.43-2.6-7.57-2.79,6,11.11,15.25,21,10.32,35l-9.19-7.73c-.92-.23-1.69-.31-1,1a12.29,12.29,0,0,0,1.37,2.06c9.17,9.15,11.06,20.35,9.95,32.73-.37,4.09-2.91,6.06-5.51,7.57s-2-2.63-3.65-3.44c-2.19-1.09-2.58-3.45-3.7-5.22a1.27,1.27,0,0,1-.29,0,1.94,1.94,0,0,1,.5.77c1.9,2.22,1.35,5.13,2.23,7.62a5.93,5.93,0,0,1-1.16,6.78c-3.56,4.17-6.84,8.59-10.13,13-1.4,1.88-2.34,2-3.58-.12-1.95-3.28-4.06-6.46-6.11-9.69C142.09,174.16,141.71,172.61,140.93,174.19Z" transform="translate(-37.94 -18.54)"/><path class="cls-1" d="M142.64,39.39c-2.53,6-5.1,12-7.56,18-.66,1.63-1.86,1.49-3.14,1.49-17.11,0-34.22,0-51.33,0a3.1,3.1,0,0,1-3.35-2.3c-2.35-5.74-4.82-11.42-7.34-17.36,2.43-.37,3.51,1.64,5.11,2.5,2.73,1.47,5,5.32,7.75,4.48,1.52-.48,1.68-5.41,2.41-8.34s1.33-5.63,2.2-9.31L96.6,42.86l9.85-24.32C109.88,27,113,34.63,116.3,42.9c3.11-4.94,5.89-9.33,9.08-14.38,1.34,5.79,2.63,10.84,3.64,16,.52,2.62,1.29,2.69,3.25,1.14,3.1-2.43,6.39-4.6,9.59-6.88Z" transform="translate(-37.94 -18.54)"/><path class="cls-2" d="M163.62,164.44a25.13,25.13,0,0,1-3.08-7.88c-.34-1-.9-2.13,1-2.1.79,2.43,3.06,4.12,3.36,6.79C163.43,161.91,163.87,163.31,163.62,164.44Z" transform="translate(-37.94 -18.54)"/><path class="cls-3" d="M140.93,174.19c-1.09-.72-1.33-1.73-1.1-3.39,1.86.76,2.79,1.79,2.81,3.6Z" transform="translate(-37.94 -18.54)"/><path class="cls-4" d="M51.85,157.72c-.13.95-.1,2-1.23,2.44a2.1,2.1,0,0,0-1.18-1.92c.48-.92,1-1.84,1.42-2.77C52.79,155.52,52,156.76,51.85,157.72Z" transform="translate(-37.94 -18.54)"/><path class="cls-5" d="M46.67,123.41l3.6-3.27c.87,2.3-.21,3.3-1.68,4.11Z" transform="translate(-37.94 -18.54)"/><path class="cls-6" d="M162.72,122.33c-.89-.72-2.43-1.59-1.25-2.7.76-.71,1.87.56,2.28,1.67Z" transform="translate(-37.94 -18.54)"/><path class="cls-7" d="M148.21,96.31c-9.78,2.76-18.69,5.42-27.7,7.71-3.13.8-4,2.11-3.38,5.19.72,3.75.87,7.6,1.41,11.38.34,2.41,0,3.72-3,3.62-6-.19-12-.2-18,0-3.16.11-3.6-1.26-3.18-3.92.52-3.28.52-6.65,1.19-9.89.83-4.05-.41-5.88-4.58-6.85-8.85-2.08-17.56-4.74-26.56-7.22,4.33-7,8.76-11.48,17.92-10.91a398.27,398.27,0,0,0,48.37,0C139.93,84.86,143.76,89.9,148.21,96.31Z" transform="translate(-37.94 -18.54)"/><path class="cls-8" d="M76.77,151.19c-3-4.73.68-5.25,4.34-5.79-2-2.94-7.17-.37-7.26-5.05-1.24-2.48.48-3,2.28-3.43,1.65,0,3.22.54,4.84.71a7,7,0,0,0,1.09.5c.64.11.51-.63.14-.07s-.85-.56-.34-.19a8.56,8.56,0,0,0-2.6-.65,4.72,4.72,0,0,1-2.57-1.85c-1.79-1.07-3.72-2.5-2.08-4.61,1.43-1.84,2.88.47,4.1,1.15,7.62,4.23,15.15,8.62,23.26,13.28-5.58,4.52-10.65,8.72-15.83,12.77-2.24,1.76-3.6-.5-5.09-1.59-1.86-1.35-.4-2.13.64-2.93a5.59,5.59,0,0,1,2.92-1.94c-1.09-.11-1.92.81-3,.51C80.05,151.47,78.2,152.61,76.77,151.19Z" transform="translate(-37.94 -18.54)"/><path class="cls-8" d="M135.94,137.59c1.6-.12,3-.06,2.78,2.2-.17,1.59.2,3.42-2.23,3.7-2.11.25-4.2.66-6.36,1,.7,1.66,2.21.82,3.18,1.34,1.33.71,4.21-.82,3.84,2.22-.33,2.64-1.61,4.77-5,3.52a7.15,7.15,0,0,0-1.47-.23c-1.64-1-3.48.48-4.69-.34a3.91,3.91,0,0,1,2.65,1.4c1.28,1,3.69.71,3.82,2.64.05.86-1.66,1.9-2.66,2.74-1.73,1.45-3,.26-4.35-.82-4-3.24-8-6.56-12.13-9.62-2.8-2.07-1.33-2.92.68-4.06,6.95-3.93,13.85-8,20.83-11.85,1-.57,2.46-2.58,3.56-.2.7,1.5.1,2.89-1.66,3.57a33.36,33.36,0,0,0-3.1,1.57c-.64.94-1.73,1.17-2.63,1.69a11.71,11.71,0,0,1-2.1.52s.2.33.2.33a2.21,2.21,0,0,1,.26-.3,12.69,12.69,0,0,0,2.68-.85C133.33,137.39,134.67,138.3,135.94,137.59Z" transform="translate(-37.94 -18.54)"/><path class="cls-9" d="M119.39,163.65l-1.78,1.89c-10.69,11.57-10.77,11.5-21.82.46-2.13-2.13-2.07-3.34.32-4.81a6.51,6.51,0,0,0,.76-.63c10.24-8.57,12.18-8.43,21.14,1.52C118.44,162.55,118.85,163,119.39,163.65Z" transform="translate(-37.94 -18.54)"/><path class="cls-10" d="M85.34,126c-4.08-7.82-9.28-13.06-14.93-18.32,5.24,1.47,10.48,3,15.73,4.4,1.86.52,1.55,1.85,1.3,3.17C86.85,118.35,86.24,121.44,85.34,126Z" transform="translate(-37.94 -18.54)"/><path class="cls-11" d="M141.14,108.08c-4.75,5.62-9.91,10.41-13.61,18.35-.89-4.93-1.48-8.3-2.11-11.66a1.94,1.94,0,0,1,1.56-2.58C131.71,110.87,136.42,109.46,141.14,108.08Z" transform="translate(-37.94 -18.54)"/><path class="cls-12" d="M76.69,135.37c1.18-.17,2,.56,3,1.09-.37,2.45-2,1.13-3.26,1.13-2.24-.36-2.16,1.4-2.53,2.76C70.51,136.24,76,137.15,76.69,135.37Z" transform="translate(-37.94 -18.54)"/><path class="cls-13" d="M76.77,151.19c1.91,1,3.83.1,5.75.05,1.11-.08,2.56-1.27,3,.92l-3.79,1.28C80.61,151.47,77.54,153.86,76.77,151.19Z" transform="translate(-37.94 -18.54)"/><path class="cls-14" d="M128.65,152.41l-5.15-1.49c3.2-.77,5.24-.89,7.19.43C130,151.75,129,151.43,128.65,152.41Z" transform="translate(-37.94 -18.54)"/><path class="cls-15" d="M130.62,137.37l3-1,2.3,1.21c-1.22,1-2.76.78-4.18,1C130.71,138.81,130.39,138.35,130.62,137.37Z" transform="translate(-37.94 -18.54)"/><path class="cls-16" d="M161.52,154.46c-.32.7-.65,1.4-1,2.1a5.66,5.66,0,0,1-.92-1.7c-.13-.82-1.62-1.88-.25-2.42S161.22,153.32,161.52,154.46Z" transform="translate(-37.94 -18.54)"/><path class="cls-17" d="M51.85,157.72l-1-2.25.91-2c1.91,0,1.34,1.11,1,2.14C52.48,156.3,52.16,157,51.85,157.72Z" transform="translate(-37.94 -18.54)"/><path class="cls-18" d="M52.8,155.59c-.16-.8-.1-1.71-1-2.14.3-.88.94-2.31,1.67-1.63C54.62,152.92,53.65,154.41,52.8,155.59Z" transform="translate(-37.94 -18.54)"/><path class="cls-19" d="M76.38,137.59c1.07-.42,2.49.17,3.26-1.13l3,1c.23,1-.07,1.42-1.11,1.18C79.76,138.41,77.94,138.63,76.38,137.59Z" transform="translate(-37.94 -18.54)"/><path class="cls-20" d="M85.48,152.16c-.77-1-2-.56-3-.92,1.59-1.13,3.38-.83,5.37-.91C87.55,151.89,86.51,152,85.48,152.16Z" transform="translate(-37.94 -18.54)"/><path class="cls-21" d="M81.49,138.67l1.11-1.18A3.18,3.18,0,0,1,85,139C83.7,139.89,82.58,139.47,81.49,138.67Z" transform="translate(-37.94 -18.54)"/><path class="cls-22" d="M130.62,137.37l1.14,1.2-3.1,1.06c-.94.09-1.31-.29-1-1.22Z" transform="translate(-37.94 -18.54)"/><path class="cls-23" d="M127.67,138.41l1,1.22c-.81.71-1.9,1.17-2.44.07S126.86,138.51,127.67,138.41Z" transform="translate(-37.94 -18.54)"/></svg>