<?xml version="1.0" encoding="utf-8"?>
<!-- Generator: Adobe Illustrator 26.0.2, SVG Export Plug-In . SVG Version: 6.00 Build 0)  -->
<svg version="1.1" id="圖層_1" xmlns="http://www.w3.org/2000/svg" xmlns:xlink="http://www.w3.org/1999/xlink" x="0px" y="0px"
	 viewBox="0 0 269.5 252.33" style="enable-background:new 0 0 269.5 252.33;" xml:space="preserve">
<style type="text/css">
	.st0{fill:#3E3A39;}
</style>
<g>
	<path class="st0" d="M115.13,105.84c5.87-3.34,11.78-4.45,18.03-3.92c11.19,0.96,20.18,6.18,27.61,14.37
		c6.02,6.65,10.23,14.39,13.58,22.65c0.06,0.15,0.04,0.35,0.06,0.61c-6.67-4.29-12.96-9.1-20.5-11.6c-0.1,0.13-0.19,0.25-0.29,0.38
		c0.3,0.42,0.6,0.85,0.91,1.27c8.96,12.35,13.52,26.22,11.85,41.36c-2.08,18.86-12.63,32.12-29.8,40c-4.31,1.98-8.86,3.45-13.3,5.16
		c-14.19,5.46-24.29,15.15-30.14,29.23c-0.07,0.17-0.19,0.31-0.37,0.61c-0.37-0.35-0.72-0.63-1.02-0.97
		c-5.86-6.72-8.71-14.75-9.99-23.4c-0.96-6.5-1.77-13.06-0.42-19.58c0.6-2.9,1.83-5.67,2.8-8.58c-3.34,3.18-6.75,6.43-10.32,9.84
		c0.28-1.4,0.44-2.72,0.82-3.98c1.57-5.27,2.87-10.65,4.9-15.73c3.84-9.63,10.79-16.28,20.63-19.81c3.9-1.4,7.83-2.72,11.6-4.43
		c10.2-4.61,16.76-12.28,18.7-23.49c1.05-6.05-0.67-11.65-4.02-16.57c-2.88-4.22-6.39-8.01-9.64-11.97
		C116.4,106.81,115.86,106.47,115.13,105.84z"/>
	<path class="st0" d="M238.98,197.66c-3.97-1.78-8.09-3.3-11.89-5.39c-15.43-8.49-25.97-21.16-30.58-38.19
		c-4.21-15.58-12.1-28.92-22.73-40.79c-6.44-7.19-12.86-14.42-19.63-21.29c-6.74-6.84-14.41-12.54-23.72-15.44
		c-2.74-0.85-4.25-2.19-5.37-4.81c-1.11-2.6-3.03-4.84-4.69-7.39c2.8-0.55,6.01-1.36,9.27-1.81c23.85-3.24,46.02,1.43,66.24,14.6
		c4.4,2.86,8.49,6.2,12.67,9.39c7.35,5.62,15.15,10.48,23.5,14.45c0.65,0.31,1.29,0.66,1.89,1.42c-3.93,0.2-7.85,0.49-11.78,0.59
		c-3.89,0.1-7.78,0.02-11.64,0.02c0.32,0.26,0.86,0.67,1.38,1.1c14.06,11.58,21.59,26.31,20.67,44.7
		c-0.3,5.88-1.86,11.71-3.02,17.53c-2.36,11.91,0.27,22.22,9.45,30.52c0.09,0.08,0.12,0.21,0.17,0.32
		C239.11,197.37,239.05,197.52,238.98,197.66z"/>
	<path class="st0" d="M140.9,14.04c-2.84,3.43-5.65,6.82-8.82,10.66c12.6-3.5,22.7,1.43,32.31,7.46c6.87,4.31,13.21,9.45,19.8,14.2
		c6.81,4.9,13.99,9.09,22.39,10.53c3.22,0.55,6.53,0.53,9.43,0.74c-9.8,5.07-20.16,9.56-31.96,4.89c-4.17-1.65-8.37-3.26-12.4-5.21
		c-20.6-9.99-41.63-10.9-63.06-3.11C97,58.42,85.49,62.87,73.94,67.21c-0.6,0.22-1.2,0.43-1.57,0.56c2.79-3.84,5.87-7.63,8.42-11.75
		c2.07-3.35,3.78-6.99,5.17-10.68c5.91-15.68,17.59-24.65,33.27-29.02C126.44,14.31,136.06,13.41,140.9,14.04z"/>
	<path class="st0" d="M101.59,121.98c1.14-0.49,2.42-0.76,3.95-0.66c2.63,0.17,5.04,1.36,6.76,3.36c2.15,2.51,3.18,5.82,3.79,9.08
		c0.6,3.18,0.83,6.65-0.76,9.46c-1.75,3.1-5.31,4.69-8.76,5.57c-5.29,1.36-10.88,1.51-16.24,0.47c-5.19-1.01-10.45-3.86-15.85-2.9
		c-2.67,0.47-4.91,2.11-6.8,3.97c-1.6,1.58-3.04,4.31-5.42,4.76c-1.4,0.26-2.82-0.3-4.05-1.03c-5.29-3.13-8.25-9.69-7.27-15.72
		c0.06-0.35,0.5-0.45,0.71-0.17c0.88,1.19,2.8,2.65,3.35,3.02c1.72,1.18,3.61,1.85,5.71,1.75c4.12-0.2,7.89-2.48,11.38-4.47
		c4.19-2.39,8.61-4.15,12.92-6.29c2.93-1.46,5.83-3,8.57-4.79c1.37-0.89,2.7-1.84,3.99-2.84c1.23-0.95,2.46-1.89,3.9-2.52
		c0.03-0.01,0.06-0.03,0.09-0.04C101.56,121.99,101.57,121.99,101.59,121.98z"/>
	<path class="st0" d="M48.46,132.53c-0.09-0.22-0.05-0.49,0.01-0.71c0.18-0.66,0.29-1.33,0.48-1.99c0.26-0.92,0.58-1.82,0.92-2.71
		c0.68-1.78,1.44-3.54,2.01-5.37c0.45-1.44,0.77-2.92,0.83-4.43c0.23-5.58-5.59-12.61-8.72-17.45c-3.64-5.65,0.29-12.38,6.57-14.86
		c3.63-1.44,7.44-1.89,11.28-1.05c1.7,0.37,5.37,1.59,2.81,3.65c-1.7,1.37-3.46,2.76-5.27,3.99c-1.6,1.08-3.15,2.03-3.99,3.87
		c-0.71,1.53-0.75,3.29-0.52,4.96c0.26,1.87,0.64,4.02,1.47,5.72c1.85,3.79,4.31,7.65,7.75,10.2c1.97,1.46,4.44,2.18,6.85,2.44
		c5.08,0.55,10.74,0.27,15.07,3.44c0.67,0.5,1.32,1.03,1.9,1.64c0.38,0.4,0.74,0.81,1.04,1.27c0.1,0.15,0.51,0.63,0.33,0.82
		c-0.05,0.05-0.12,0.05-0.18,0.04c-0.47-0.03-0.87-0.29-1.31-0.44c-0.33-0.12-0.65-0.23-0.99-0.33c-0.65-0.2-1.32-0.36-1.98-0.51
		c-1.61-0.36-3.24-0.64-4.86-0.89c-1.65-0.25-3.3-0.45-4.96-0.6c-4.1-0.36-8.33-1.26-12.43-0.47c-3.73,0.71-7.06,2.91-9.21,6.04
		c-0.72,1.05-1.37,2.14-1.97,3.26c-0.25,0.47-0.39,0.99-0.66,1.45c-0.06,0.1-0.14,0.21-0.26,0.23c-0.1,0.02-0.2-0.03-0.29-0.08
		c-0.28-0.16-0.57-0.31-0.85-0.47c-0.25-0.14-0.61-0.29-0.79-0.53C48.5,132.62,48.48,132.57,48.46,132.53z"/>
	<path class="st0" d="M95.31,71.26c0.58-0.64,1.55-0.63,2.17-0.03c1.25,1.21,3.84,2.28,4.35,2.38c2.3,0.45,4.6,0.2,6.9-0.05
		c1.39-0.16,2.2,1.52,1.22,2.53c-3.7,3.83-10.26,5.29-15.16,4.88c-1.89-0.16-3.78-0.37-5.69-0.6c-1.33-0.16-1.78-1.86-0.71-2.67
		c1.25-0.95,2.4-1.96,3.01-2.47C92.83,74.05,94.06,72.64,95.31,71.26z"/>
</g>
</svg>
